<?xml version="1.0" encoding="UTF-8"?>
<svg id="b" data-name="Layer 2" xmlns="http://www.w3.org/2000/svg" viewBox="0 0 173.4924805539 140.3767251831">
  <defs>
    <style>
      .d {
        fill: #016b5c;
      }

      .d, .e, .f {
        stroke-width: 0px;
      }

      .e {
        fill: #00bcc9;
      }

      .f {
        fill: #fff;
      }
    </style>
  </defs>
  <g id="c" data-name="Layer 1">
    <g>
      <g>
        <path class="e" d="m167.7813627838,128.9544300794h-17.1709378178v-.0515223436c12.7678323776-.7830800593,22.8820555879-11.3807794118,22.8820555879-24.3456475265,0-13.4741352104-10.9229750963-24.3971698701-24.3971698701-24.3971698701s-24.3971698701,10.9230346597-24.3971698701,24.3971698701c0,4.1482932022,1.038428368,8.052972086,2.8647614308,11.4733409401l-9.3736118574-.3080222114-60.5049812779-1.0946363659-10.8752052471-.4152760457c1.277873248-2.9616115241,1.9890602799-6.2249712479,1.9890602799-9.655406317,0-13.4741352104-10.9229750963-24.3971698701-24.3971698701-24.3971698701S.0038244018,91.0831249989.0038244018,104.5572602093c0,13.4741947738,10.9229750963,24.3971698701,24.3971698701,24.3971698701H5.7149421719C2.5607621659,128.9544300794.0038244018,131.5114274069.0038244018,134.6655478496v.0000595634c0,3.1541204426,2.5569377641,5.7111177702,5.7111177702,5.7111177702h162.0664206118c3.154180006,0,5.7111177702-2.5569973275,5.7111177702-5.7111177702v-.0000595634c0-3.1541204426-2.5569377641-5.7111177702-5.7111177702-5.7111177702Z"/>
        <path class="d" d="m167.7800292969,128.9530775339h-17.1700439453v-.049987793c12.7700195312-.7800292969,22.8800048828-11.3800048828,22.8800048828-24.3500366211,0-12.549987793-9.4799804688-22.8899536133-21.6699829102-24.2299804688-.0100097656-.0100097656-.0100097656,0-.0100097656,0-.8499755859-.1099853516-1.7199707031-.1599731445-2.5899658203-.1599731445h-.1200561523c-.25,0-.5,0-.75.0199584961-1.8299560547.0500488281-3.5999755859.3000488281-5.3099975586.7400512695-10.549987793,2.6900024414-18.3399658203,12.25-18.3399658203,23.6299438477,0,2.2200317383.299987793,4.3800048828.8599853516,6.4200439453.2299804688.8599853516.5100097656,1.6900024414.8300170898,2.5100097656.3399658203.8800048828.7299804688,1.7299804688,1.1699829102,2.549987793l-9.3699951172-.3099975586-23.0800170898-.4200439453-16.5-.299987793-20.9299926758-.3800048828-5.1099853516-.1900024414-2.4400024414-.0899658203-3.3200073242-.1300048828c.200012207-.4700317383.3900146484-.950012207.5599975586-1.4400024414.3099975586-.8300170898.5599975586-1.6900024414.7600097656-2.5599975586.4400024414-1.8200073242.6699829102-3.7100219727.6699829102-5.6600341797,0-11.2899780273-7.6699829102-20.7899780273-18.0899658203-23.5599975586-1.700012207-.4599609375-3.4800415039-.7399902344-5.3000488281-.8099975586h-.0099487305c-.3300170898-.0099487305-.6700439453-.0199584961-1-.0199584961-.5400390625,0-1.0700073242.0199584961-1.6000366211.0599975586-.2799682617.0100097656-.5599975586.0299682617-.8499755859.0700073242-12.3200073242,1.2199707031-21.950012207,11.6099853516-21.950012207,24.2599487305,0,13.4800415039,10.9299926758,24.4000244141,24.4000244141,24.4000244141v-3.4600219727c-11.5400390625,0-20.9299926758-9.3899536133-20.9299926758-20.9400024414,0-10.75,8.1499633789-19.6399536133,18.5999755859-20.799987793.2899780273-.0299682617.5800170898-.0599975586.8699951172-.0700073242.4799804688-.0399780273.9699707031-.0599975586,1.4600219727-.0599975586.3800048828,0,.7599487305.0100097656,1.1399536133.0300292969,1.3699951172.0700073242,2.700012207.2799682617,3.9900512695.6099853516,9.0699462891,2.2899780273,15.8099975586,10.5200195312,15.8099975586,20.2899780273,0,1.3200073242-.1199951172,2.6100463867-.3699951172,3.8800048828-.1600341797.8800048828-.3800048828,1.75-.6700439453,2.6100463867-.1900024414.6099853516-.4199829102,1.2099609375-.6699829102,1.799987793l-2,4.6400146484,5.049987793.1900024414,10.8699951172.4199829102h.0700073242l22.549987793.4099731445,13.2600097656.2399902344,24.6699829102.4400024414,9.3500366211.3099975586,3.6199951172.1200561523,2.3699951172.0799560547-.8499755859-1.5899658203-1.9700317383-3.700012207c-.450012207-.8500366211-.8499755859-1.7299804688-1.1699829102-2.6400146484-.3200073242-.8300170898-.5700073242-1.6900024414-.7600097656-2.5599975586-.3499755859-1.5200195312-.5300292969-3.0800170898-.5300292969-4.6500244141,0-9.8699951172,6.8600463867-18.1599731445,16.0700073242-20.3499755859,1.2900390625-.3200073242,2.6400146484-.5100097656,4.0100097656-.5599975586.2800292969-.0100097656.5700073242-.0200195312.8500366211-.0200195312h.0099487305c.8700561523,0,1.7400512695.0500488281,2.5800170898.1700439453q.0100097656-.0100097656.0200195312,0c10.3200073242,1.2799682617,18.3300170898,10.0999755859,18.3300170898,20.7599487305,0,11.0400390625-8.6200561523,20.2200317383-19.6300048828,20.8900146484l-3.25.200012207v6.7700195312h20.6300048828c1.2399902344,0,2.25,1.0100097656,2.25,2.25s-1.0100097656,2.25-2.25,2.25H5.7100219727c-1.2300415039,0-2.2399902344-1.0100097656-2.2399902344-2.25s1.0099487305-2.25,2.2399902344-2.25h18.6900024414v-3.4600219727H5.7100219727c-3.1500244141,0-5.7100219727,2.5599975586-5.7100219727,5.7100219727,0,1.5799560547.6400146484,3.0100097656,1.6699829102,4.0399780273,1.0400390625,1.0300292969,2.4700317383,1.6699829102,4.0400390625,1.6699829102h162.0700073242c3.1599731445,0,5.7099609375-2.549987793,5.7099609375-5.7099609375,0-1.5800170898-.6400146484-3-1.6699829102-4.0400390625-1.0300292969-1.0299682617-2.4600219727-1.6699829102-4.0399780273-1.6699829102Zm-35.1900024414-10.8499755859c-.4900512695.5100097656-1,1.0199584961-1.5200195312,1.5100097656l2.3699951172.0799560547-.8499755859-1.5899658203Z"/>
      </g>
      <g>
        <path class="e" d="m151.8180659379,80.1880499963c0,1.3766050497-.0519443693,2.7618234587-.1471669058,4.1297623064-.4415535601,5.9911462408-1.8268248118,11.7399030393-4.0172073659,17.1336626122-1.8701029791,4.5885954279-4.3288735815,8.9174690093-7.2984745173,12.9000644099,3.3505439247-5.9305885123,5.4457039422-12.5104552191,5.9824800388-19.4539853535-.008666202-.0606105713-.008666202-.1211682998-.0172795613-.1817788711-.5194965354,1.8354381711-1.1428289666,3.6448777363-1.8701029791,5.4283715382-1.7488818366,4.2855954142-4.0604855332,8.3634133514-6.8742533611,12.1381784322-.8917204796,1.1947733359-1.8354381711,2.3635480658-2.82243403,3.4717650672-11.7139044333,13.4454538659-29.1679523059,21.1595361801-47.8686650409,21.1595361801-20.2764290598,0-39.2369164838-9.2205218657-50.7170976768-24.6745794145-2.7531572567-3.6968749483-5.012816584-7.6794175062-6.7356998146-11.8524579799l-.2251098811-.5454422987c-.6753296432-1.6882712653-1.2553839072-3.4111544959-1.7488818366-5.1513701305-.008666202.0606105713-.008666202.1125549405-.0172795613.1731655118.5281098947,6.9435301344,2.6146037102,13.5147306392,5.9478680736,19.4453191515-3.0215981478-4.0604855332-5.5149807154-8.4759682919-7.3937498965-13.1771186603v-.008666202c-2.1211586235-5.3072032383-3.4630988652-10.9606846576-3.8873200214-16.8566083619-.1038887385-1.3506064437-.1558331078-2.7098790894-.1558331078-4.0778179371,0-3.9998749619.4242211562-7.9045273872,1.2293853012-11.6792924681,2.6579347202-12.5104552191,9.506242318-23.6356391865,19.1249867339-32.0509969071,3.8007636868-3.030211507,2.7531572567-6.415367397,2.1557705888-7.6794175062-.0865563346-.1558331078-.1731655118-.3116662156-.2510556444-.4761655254v-.008666202c-1.2207719419-2.5193811736-1.9133811464-5.2898708343-1.9133811464-8.2248598048C42.297564326,8.9867457826,51.9942517171,0,63.9419322335,0c6.8049765879,0,12.865399602,2.9089903645,16.8306625986,7.4543076251,3.0042129011,3.4371531019,4.8050391069,7.8093048507,4.8137053089,12.5710657903.4328873582-.008666202.8657747163-.0432781673,1.2986620745-.0432781673.4415535601,0,.8744409183.017332404,1.3073282764.0259457633.0346119653-11.0645733961,9.7053007504-20.0080410114,21.6357017055-20.0080410114,6.8049765879,0,12.865399602,2.9089903645,16.8306625986,7.4543076251,3.0128791031,3.4371531019,4.8137053089,7.8353034567,4.8137053089,12.6143439576,0,3.3072657574-.8744409183,6.4067540377-2.4068790758,9.1599112944-.4761655254,1.1947733359-.9956092181,3.5237094365.813830347,5.8785913003,2.7098790894,2.21638116,5.2293131058,4.6405926398,7.4976386351,7.246530148,6.5712005048,7.5149710391,11.2204065039,16.518996383,13.2636749948,26.3801830839.7704993371,3.7054883076,1.1774409319,7.5409168023,1.1774409319,11.454182587Z"/>
        <path class="d" d="m150.6400146484,68.7331068308c-.049987793-.2200317383-.0900268555-.450012207-.1500244141-.6700439453-2.0999755859-9.5999755859-6.6900024414-18.3599853516-13.1099853516-25.7099609375-2.2700195312-2.6100463867-4.7899780273-5.0300292969-7.5-7.25-1.8099975586-2.3500366211-1.2899780273-4.6799926758-.8099975586-5.8699951172,1.5299682617-2.7600097656,2.4000244141-5.8600463867,2.4000244141-9.1600341797,0-4.7799682617-1.8000488281-9.1799926758-4.8100585938-12.6199951172C122.6900024414,2.9130995065,116.6300048828.0030653269,109.8300170898.0030653269,97.9000244141.0030653269,88.2299804688,8.9430677683,88.1900024414,20.0030653269c-.4299926758,0-.8599853516-.0199584961-1.3099975586-.0199584961-.4299926758,0-.8599853516.0299682617-1.2899780273.0399780273-.0100097656-4.7600097656-1.8099975586-9.1300048828-4.8200073242-12.5700073242C76.8099975586,2.9130995065,70.75.0030653269,63.9400024414.0030653269,51.9899902344.0030653269,42.299987793,8.9831068308,42.299987793,20.0730726511c0,2.9299926758.6900024414,5.700012207,1.9100341797,8.2200317383v.0099487305c.0799560547.1600341797.1699829102.3200073242.25.4800415039.5999755859,1.2600097656,1.6499633789,4.6400146484-2.1500244141,7.6699829102-9.6199951172,8.4199829102-16.4699707031,19.549987793-19.1300048828,32.0599975586-.799987793,3.7700195312-1.2299804688,7.6799926758-1.2299804688,11.6699829102v.1100463867c0,1.1599731445.0399780273,2.3099975586.1199951172,3.4599609375.0100097656.1700439453.0299682617.3400268555.0399780273.5100097656.4200439453,5.9000244141,1.7600097656,11.549987793,3.8900146484,16.8599853516v.0100097656c1.8699951172,4.700012207,4.3699951172,9.1099853516,7.3900146484,13.1799926758-2.1400146484-3.8099975586-3.7600097656-7.8800048828-4.799987793-12.1399536133-.5700073242-2.3800048828-.9600219727-4.8200073242-1.1500244141-7.3099975586.0100097656-.0600585938.0100097656-.1100463867.0200195312-.1700439453-1.0100097656-3.4899902344-1.6400146484-7.0700073242-1.9000244141-10.700012207-.0100097656-.1099853516-.0200195312-.2199707031-.0200195312-.3299560547v-.0100097656c-.0099487305-.0300292969-.0099487305-.049987793-.0099487305-.0800170898-.0500488281-.8099975586-.0900268555-1.6300048828-.1100463867-2.4299926758-.0100097656-.3200073242-.0100097656-.6400146484-.0100097656-.9600219727,0-2.7599487305.2200317383-5.5399780273.6600341797-8.2699584961.1400146484-.9000244141.3099975586-1.799987793.5-2.6900024414v-.0100097656c2.4600219727-11.549987793,8.6599731445-21.950012207,17.9600219727-30.0999755859,4.6199951172-3.7200317383,4.6099853516-8.5400390625,3.0699462891-11.8200073242l-.0599975586-.1000366211-.049987793-.0899658203c-.0199584961-.0599975586-.049987793-.1000366211-.0800170898-.1400146484l-.0799560547-.1799926758c-1.0400390625-2.1400146484-1.5700073242-4.4000244141-1.5700073242-6.7100219727,0-9.1599731445,8.1599731445-16.6099853516,18.1799926758-16.6099853516,5.5700073242,0,10.75,2.2899780273,14.2299804688,6.2700195312,2.5800170898,2.9599609375,3.9400024414,6.5199584961,3.950012207,10.299987793l.0100097656,3.5199584961,3.5299682617-.0599975586c.2100219727-.0099487305.4300537109-.0199584961.6400146484-.0299682617.200012207-.0100097656.3900146484-.0200195312.5800170898-.0200195312.2600097656,0,.5299682617.0100097656.7899780273.0200195312l.450012207.0100097656,3.5300292969.0700073242.0099487305-3.5300292969c.0200195312-9.1199951172,8.1800537109-16.549987793,18.1700439453-16.549987793,5.5599975586,0,10.7399902344,2.2899780273,14.2199707031,6.2799682617,2.5599975586,2.9100341797,3.9600219727,6.5800170898,3.9600219727,10.3300170898,0,2.6099853516-.6699829102,5.1199951172-1.9700317383,7.4700317383l-.1099853516.1999511719-.0899658203.200012207c-1.2600097656,3.1799926758-.7900390625,6.5599975586,1.2899780273,9.2800292969l.25.3099975586.3099975586.2600097656c2.5900268555,2.1099853516,4.9699707031,4.4099731445,7.0800170898,6.8399658203,6.299987793,7.200012207,10.6099853516,15.7700195312,12.4799804688,24.799987793.0300292969.1400146484.0599975586.2700195312.0800170898.4100341797.1799926758.8999633789.3399658203,1.8099975586.4699707031,2.7199707031.3699951172,2.5200195312.549987793,5.0700073242.549987793,7.6199951172,0,1.1199951172-.0299682617,2.2900390625-.1099853516,3.4600219727,0,.1400146484-.0100097656.2800292969-.0199584961.4199829102-.2700195312,3.6100463867-.9000244141,7.1700439453-1.9000244141,10.6500244141.0100097656.0599975586.0100097656.1199951172.0200195312.1799926758-.0900268555,1.1500244141-.2200317383,2.2800292969-.4000244141,3.4099731445-.2399902344,1.5900268555-.5599975586,3.1500244141-.9699707031,4.6900024414-1.0300292969,3.9800415039-2.5900268555,7.7900390625-4.6100463867,11.3600463867,2.9600219727-3.9800415039,5.4200439453-8.3099975586,7.2900390625-12.9000244141,2.1900024414-5.4000244141,3.5799560547-11.1400146484,4.0199584961-17.1400146484.0100097656-.1699829102.0200195312-.3399658203.0300292969-.5199584961.0800170898-1.1400146484.1199951172-2.3099975586.1199951172-3.4700317383v-.3800048828c-.0200195312-3.8299560547-.4299926758-7.5799560547-1.1799926758-11.2099609375Z"/>
      </g>
      <path class="d" d="m146.3376971878,94.8975539714c-.5367760967,6.9435301344-2.6319361142,13.5233968412-5.9824800388,19.4539853535-.9437176916,1.2639972665-1.9393269097,2.4934354104-2.9869333398,3.6795425443-11.8870699451,13.6359517817-30.0856713914,22.345643314-50.4833215937,22.345643314-22.1898102062,0-41.7909624655-10.3200198223-53.4962006968-26.0684640255-3.3332643634-5.9305885123-5.4197581789-12.5017890171-5.9478680736-19.4453191515.0086133593-.0606105713.0086133593-.1125549405.0172795613-.1731655118.4934979294,1.7402156346,1.0735521934,3.4630988652,1.7488818366,5.1513701305l.2251098811.5454422987c1.7228832306,4.1730404737,3.9825425579,8.1555830316,6.7356998146,11.8524579799,11.480181193,15.4540575489,30.440668617,24.6745794145,50.7170976768,24.6745794145,18.700712735,0,36.1547606075-7.7140823141,47.8686650409-21.1595361801.9869958588-1.1082170014,1.9307135504-2.2769917313,2.82243403-3.4717650672,2.813767828-3.7747650808,5.1253715245-7.852583018,6.8742533611-12.1381784322.7272740125-1.7834938019,1.3506064437-3.592933367,1.8701029791-5.4283715382.0086133593.0606105713.0086133593.1211682998.0172795613.1817788711Z"/>
      <path class="f" d="m146.3204176265,94.7157751003c-.5194965354,1.8354381711-1.1428289666,3.6448777363-1.8701029791,5.4283715382-1.7488818366,4.2855954142-4.0604855332,8.3634133514-6.8742533611,12.1381784322-.8917204796,1.1947733359-1.8354381711,2.3635480658-2.82243403,3.4717650672-11.7139044333,13.4454538659-29.1679523059,21.1595361801-47.8686650409,21.1595361801-20.2764290598,0-39.2369164838-9.2205218657-50.7170976768-24.6745794145-2.7531572567-3.6968749483-5.012816584-7.6794175062-6.7356998146-11.8524579799l-.2251098811-.5454422987c-.6753296432-1.6882712653-1.2553839072-3.4111544959-1.7488818366-5.1513701305,2.1557705888-27.0641260864,27.9472332067-48.4314397435,59.4267892091-48.4314397435,31.5055546084,0,57.2882981816,21.3846460611,59.4354554111,48.4574383495Z"/>
      <circle class="f" cx="110.5565960844" cy="17.3285406003" r="7.2147893025"/>
      <circle class="d" cx="110.5565960844" cy="17.3285406003" r="4.3288735815"/>
      <g>
        <circle class="f" cx="63.6604656181" cy="18.0730941741" r="7.2147893025"/>
        <circle class="d" cx="63.6604656181" cy="18.0730941741" r="4.3288735815"/>
      </g>
      <path class="d" d="m86.8734625877,49.8250777552c-2.2117838455,0-4.4231449495-.5681646576-6.3977707795-1.706184939-.6214300942-.3584848435-.8349145824-1.1523934944-.4768524805-1.7738235887.3584848435-.6205846111,1.1511252698-.8353373239,1.7738235887-.4768524805,3.1574567168,1.8194796772,7.0775392091,1.8135612954,10.2299230272-.0160641793.6210073527-.3601758097,1.4149160036-.1496505125,1.7750918134.4709340986.3601758097.619739128.1492277709,1.4144932621-.4713568402,1.7746690718-1.9822351781,1.1515480113-4.2079694951,1.727322017-6.4328583291,1.727322017Z"/>
      <g>
        <path class="d" d="m83.710087489,38.5564787134c-.247303813,0-.4975668169-.0701750991-.7186606532-.2181346453l-4.0405638371-2.6920182585c-.5969110837-.3973770671-.7583983599-1.2039679649-.3610212928-1.8008790486.3977998086-.5969110837,1.2035452233-.759243843,1.8008790486-.3601758097l4.0405638371,2.6920182585c.5969110837.3973770671.7583983599,1.2039679649.3610212928,1.8008790486-.2502630039.3753945059-.6624360256.578310455-1.0822183954.578310455Z"/>
        <path class="d" d="m90.0685433034,38.5564787134c-.4197823698,0-.8319553914-.2029159491-1.0822183954-.578310455-.3973770671-.5969110837-.2358897909-1.4035019815.3610212928-1.8008790486l4.0405638371-2.6920182585c.595642859-.3990680333,1.4030792399-.236735274,1.8008790486.3601758097.3973770671.5969110837.2358897909,1.4035019815-.3610212928,1.8008790486l-4.0405638371,2.6920182585c-.2210938362.1479595462-.4713568402.2181346453-.7186606532.2181346453Z"/>
      </g>
      <path class="d" d="m89.2671753356,122.5451432145v-10.556640625h-19.6669921875v-6.8681640625l16.6640625-27.0283203125h12.9990234375v25.9833984375h5.267578125v7.9130859375h-5.267578125v10.556640625h-9.99609375Zm0-18.4697265625v-9.611328125c0-2.68359375.1455078125-5.4560546875.298828125-8.341796875l-.25-.009765625c-1.4228515625,2.9111328125-2.625,5.509765625-4.142578125,8.3212890625l-5.7109375,9.5048828125-.0419921875.13671875h9.8466796875Z"/>
      <g>
        <path class="e" d="m149.2211996957,79.760713807c0,1.3099975586-.049987793,2.6799926758-.1400146484,4.0399780273-.4199829102,5.4700317383-1.6599731445,10.8400268555-3.6900024414,15.9700317383l-21.8400268555,12.3299560547-1.8299560547-3.1099853516,2.7399902344-1.5200195312-.9799804688-1.75-2.7800292969,1.5500488281-2.2799682617-3.8600463867,2.8799438477-1.6099853516-.9699707031-1.75-2.9299926758,1.6300048828-2.2800292969-3.8599853516,3.0200195312-1.6799926758-.9699707031-1.75-3.0599975586,1.7099609375-2-3.3800048828,36.5599975586-20.6499633789c.3699951172,2.5399780273.549987793,5.1199951172.549987793,7.6900024414Z"/>
        <path class="d" d="m150.5900268555,68.0030653269l-.1000366211.0599975586-3.1599731445,1.7800292969-7.6700439453,4.3399658203-28.0399780273,15.8300170898-3.0899658203,1.75,3.4299926758,5.8099975586,10.6499633789,18.049987793,3.7800292969-2.1399536133,3.0599975586-1.7200317383,13.0399780273-7.3699951172,2.4800415039-1.4000244141,2.4799804688-1.3999633789c2.299987793-5.5300292969,3.75-11.4400024414,4.2199707031-17.5900268555,0-.0700073242.0100097656-.1399536133.0100097656-.2099609375.0800170898-1.1500244141.1300048828-2.3099975586.1300048828-3.4700317383.0100097656-.1199951172.0100097656-.25.0100097656-.3800048828v-.1799926758c0-4.0200195312-.4299926758-7.950012207-1.2299804688-11.7600097656Zm-1.5,15.6199951172c0,.0599975586-.0100097656.1199951172-.0100097656.1799926758-.3800048828,4.950012207-1.4299926758,9.8200073242-3.1400146484,14.5-.1699829102.4900512695-.3599853516.9800415039-.549987793,1.4700317383l-1.0300292969.5800170898-15.6699829102,8.8499755859-3.1300048828,1.7700195312-2.0100097656,1.1300048828-1.8299560547-3.1100463867,2.7399902344-1.5199584961-.9800415039-1.75-2.7799682617,1.549987793-2.2800292969-3.8599853516,2.8800048828-1.6100463867-.9699707031-1.75-2.9299926758,1.6300048828-2.2800292969-3.8599853516,3.0200195312-1.6799926758-.9700317383-1.75-3.0599975586,1.7100219727-1.4400024414-2.4299926758-.5599975586-.950012207.4100341797-.2300415039,28.4199829102-16.049987793,6.8599853516-3.8800048828.8699951172-.4899902344c.3699951172,2.5400390625.5500488281,5.1199951172.5500488281,7.6900024414v.4000244141c-.0100097656,1.1300048828-.0500488281,2.299987793-.1300048828,3.4599609375Z"/>
      </g>
      <g>
        <path class="e" d="m25.3851674122,79.5359937414c0,1.3099975586.049987793,2.6799926758.1400146484,4.0399780273.4199829102,5.4700317383,1.6599731445,10.8400268555,3.6900024414,15.9700317383l21.8400268555,12.3299560547,1.8299560547-3.1099853516-2.7399902344-1.5200195312.9799804688-1.75,2.7800292969,1.5500488281,2.2799682617-3.8600463867-2.8799438477-1.6099853516.9699707031-1.75,2.9299926758,1.6300048828,2.2800292969-3.8599853516-3.0200195312-1.6799926758.9699707031-1.75,3.0599975586,1.7099609375,2-3.3800048828-36.5599975586-20.6499633789c-.3699951172,2.5399780273-.549987793,5.1199951172-.549987793,7.6900024414Z"/>
        <path class="d" d="m61.6799926758,89.0431043894l-27.25-15.3900146484-7.8599853516-4.4400024414-2.549987793-1.4400024414c-.799987793,3.8099975586-1.2300415039,7.7399902344-1.2300415039,11.7600097656,0,.2299804688,0,.4599609375.0100097656.6900024414.0100097656,1.1599731445.049987793,2.3099975586.1400146484,3.4599609375v.0900268555c.4699707031,6.1500244141,1.9199829102,12.0599975586,4.2199707031,17.5900268555l1.4300537109.8099975586,2.1999511719,1.2399902344,13.5100097656,7.6300048828,3.0700073242,1.7299804688,2.7600097656,1.5700073242,1.8699951172,1.049987793.5700073242-.9600219727,8.0899658203-13.7199707031,5.4200439453-9.1799926758-4.4000244141-2.4899902344Zm-1.1799926758,6.8299560547l-1.7100219727-.9499511719-1.3499755859-.7600097656-.9699707031,1.75,2.5399780273,1.4099731445.4799804688.2700195312-.2799682617.4699707031-2,3.3900146484-2.9299926758-1.6300048828-.9700317383,1.75,2.8800048828,1.6099853516-2.2800292969,3.8600463867-2.7799682617-1.5500488281-.9799804688,1.75,2.7399902344,1.5200195312-1.8300170898,3.1099853516-2.9299926758-1.6599731445-3.1599731445-1.7800292969-15.75-8.8899536133c-.6700439453-1.6900024414-1.25-3.4000244141-1.7300415039-5.1300048828-1.0199584961-3.5100097656-1.6699829102-7.1100463867-1.950012207-10.75v-.0100097656c-.0099487305-.0300292969-.0099487305-.049987793-.0099487305-.0800170898-.0500488281-.8099975586-.0900268555-1.6300048828-.1100463867-2.4299926758-.0199584961-.3200073242-.0199584961-.6400146484-.0199584961-.9600219727-.0100097656-.2199707031-.0100097656-.4299926758-.0100097656-.6499633789,0-2.5700073242.1799926758-5.1500244141.549987793-7.6900024414l.1300048828.0700073242,7.049987793,3.9899902344,26.8500366211,15.1599731445,2.5299682617,1.4299926758-2,3.3800048828Z"/>
      </g>
    </g>
  </g>
</svg>